<?xml version="1.0" encoding="UTF-8"?>
<!DOCTYPE svg PUBLIC "-//W3C//DTD SVG 1.1//EN" "http://www.w3.org/Graphics/SVG/1.1/DTD/svg11.dtd">
<!-- Creator: CorelDRAW 2019 (64-Bit) -->
<svg xmlns="http://www.w3.org/2000/svg" xml:space="preserve" width="97.001mm" height="19.894mm" version="1.1" style="shape-rendering:geometricPrecision; text-rendering:geometricPrecision; image-rendering:optimizeQuality; fill-rule:evenodd; clip-rule:evenodd"
viewBox="0 0 9685.86 1986.48"
 xmlns:xlink="http://www.w3.org/1999/xlink">
 <defs>
  <style type="text/css">
   <![CDATA[
    .fil0 {fill:#4F4F4E;fill-rule:nonzero}
    .fil1 {fill:#78B833;fill-rule:nonzero}
   ]]>
  </style>
 </defs>
 <g id="Layer_x0020_1">
  <metadata id="CorelCorpID_0Corel-Layer"/>
  <g id="_644357851824">
   <polygon className="fil0" points="773.6,129.61 0.01,129.61 0.01,5.97 1019.84,5.97 248.23,1107.64 1018.09,1107.64 1018.09,1231.31 0.01,1231.31 "/>
   <path className="fil0" d="M2137.76 714.72l-553.34 0 0 -123.68 553.34 0 0 123.68zm-864.32 516.61l0 -1225.39 879.19 0 0 123.68 -749.61 0 0 978.03 749.61 0 0 123.68 -879.19 0z"/>
   <polygon className="fil0" points="2411.6,1231.33 2411.6,5.97 2628.3,5.97 3359.28,1115.4 3359.28,5.97 3488.89,5.97 3488.89,1231.33 3285.28,1231.33 2541.25,119.73 2541.25,1231.33 "/>
   <path className="fil1" d="M4416.08 1107.63c66.67,0 116.66,-20.29 150.06,-60.91 33.22,-40.58 49.88,-92.45 49.88,-155.23 0,-54.94 -11.67,-100.44 -35.15,-136.39 -23.45,-36.07 -61.09,-59.11 -112.87,-69.71l0 -129.65c38.17,0 74.27,9.22 108.3,27.46 33.93,18.5 63.8,42.59 89.71,72.65 25.9,30.21 46.22,65.74 61.06,106.97 14.84,41.31 22.29,84.28 22.29,128.66 0,51.09 -7.74,97.62 -23.24,139.56 -15.37,41.85 -35.93,77.58 -62.01,107.04 -25.8,29.35 -56.14,52.36 -90.63,68.6 -34.41,16.41 -71.01,24.6 -109.32,24.6l-712.36 0 0 -123.67 664.28 0zm-349.81 -978.03c-66.51,0 -116.63,20.4 -149.92,60.79 -33.22,40.73 -49.86,92.46 -49.86,155.23 0,54.93 11.68,100.84 35.09,137.55 23.42,36.59 61.06,60.12 112.87,70.53l0 127.67c-38.28,0 -74.24,-9.04 -108.27,-27.46 -33.99,-18.27 -63.77,-42.44 -89.64,-72.72 -26.12,-29.96 -46.37,-65.34 -61.09,-105.88 -14.94,-40.62 -22.22,-83.85 -22.22,-129.68 0,-51.02 7.28,-97.58 22.22,-139.53 14.72,-41.85 34.97,-77.57 61.09,-107.07 25.87,-29.18 55.93,-52.22 90.6,-68.66 34.54,-16.2 71.56,-24.4 111.07,-24.4l712.53 0 0 123.65 -664.47 0z"/>
   <path className="fil1" d="M4988.01 378.01c30.9,-75.23 72.52,-140.76 124.98,-196.34 52.44,-55.72 114.49,-99.83 186.13,-132.69 71.46,-32.53 147.89,-48.97 229.47,-48.97 59.09,0 115.79,8.87 170.18,26.44 54.23,17.75 104.33,42.93 149.91,75.64 45.59,32.75 86.69,71.42 123.25,115.88 36.24,44.57 66.12,93.05 89.67,145.38l-103.66 70.58c-18.59,-43.16 -42.36,-83.1 -71.3,-119.61 -28.96,-36.75 -62.11,-68.89 -99.05,-96.34 -37.05,-27.56 -77.48,-48.75 -121.24,-63.74 -43.8,-15.11 -89.11,-22.72 -135.93,-22.72 -62.96,0 -122.75,13.46 -179.59,40.31 -56.85,26.9 -106.09,62.48 -147.99,107.05 -42.08,44.56 -75.44,96.6 -100.08,156.09 -24.71,59.59 -37.09,121.43 -37.09,185.66 0,65.45 12.37,127.18 37.09,185.51 24.64,58.3 58,109.62 100.08,154.07 41.9,44.53 90.98,79.97 147.07,106.18 56.17,26.11 115.72,39.28 178.68,39.28 43.03,0 85,-6.34 125.74,-18.72 40.78,-12.42 78.6,-29.81 113.89,-51.88 35.09,-22.46 67.22,-48.9 96.29,-79.67 28.9,-30.83 53.35,-65.11 73.07,-103.16l88.8 96.3c-51.91,86.53 -120.64,156.05 -206.38,209.09 -85.8,53.03 -183.03,79.51 -291.41,79.51 -81.58,0 -158.01,-16.27 -229.47,-49.01 -71.63,-32.75 -133.68,-76.99 -186.13,-132.6 -52.45,-55.64 -94.07,-121.02 -124.98,-196.36 -30.81,-75.42 -46.25,-155.42 -46.25,-240.57 0,-85.11 15.44,-165.3 46.25,-240.6z"/>
   <polygon className="fil1" points="7616.18,1231.33 7616.18,5.97 7745.82,5.97 7745.82,1107.65 8495.41,1107.65 8495.41,1231.33 "/>
   <path className="fil1" d="M9613.32 714.72l-553.51 0 0 -123.68 553.51 0 0 123.68zm-864.43 516.61l0 -1225.39 879.16 0 0 123.68 -749.63 0 0 978.03 749.63 0 0 123.68 -879.16 0z"/>
   <path className="fil0" d="M7479.49 1031.21c0,69.15 -63.53,125.14 -141.63,125.14l-1007.28 0c-78.23,0 -141.5,-55.99 -141.5,-125.14 0,-69.04 63.28,-125.1 141.5,-125.1l1007.28 0c78.11,0 141.63,56.06 141.63,125.1z"/>
   <path className="fil0" d="M7152.68 524.14l-636.77 0c-61.18,0 -110.77,59.08 -110.77,131.7 0,72.69 49.59,131.73 110.77,131.73l14.02 0 304.17 -132.7 297.98 132.7 20.6 0c61.1,0 110.69,-59.03 110.69,-131.73 0,-72.61 -49.59,-131.7 -110.69,-131.7z"/>
   <path className="fil0" d="M7011.56 238.04c0,103.84 -79.41,188.12 -177.37,188.12 -97.84,0 -177.21,-84.29 -177.21,-188.12 0,-103.76 79.37,-188.01 177.21,-188.01 97.96,0 177.37,84.26 177.37,188.01z"/>
   <path className="fil0" d="M23.88 1514.74c0,-6.71 2.19,-12.4 6.58,-17.03 4.37,-4.65 9.73,-6.98 16.06,-6.98l129.95 0c15.57,0 30.18,3.1 43.81,9.31 13.63,6.19 25.55,14.71 35.77,25.55 10.22,10.84 18.37,23.63 24.46,38.34 6.08,14.72 9.13,30.35 9.13,46.87 0,18.58 -3.89,35.88 -11.69,51.89 -7.78,16.01 -18,29.69 -30.65,41.05 21.41,12.91 38.57,30.85 51.47,53.84 12.89,22.97 19.34,48.66 19.34,77.07 0,20.66 -3.64,40.16 -10.95,58.48 -7.3,18.33 -17.39,34.34 -30.3,48.02 -12.9,13.7 -27.98,24.53 -45.26,32.53 -17.27,8.01 -35.65,12.01 -55.12,12.01l-129.95 0c-6.33,0 -11.68,-2.33 -16.06,-6.97 -4.39,-4.64 -6.58,-10.32 -6.58,-17.03l0 -446.95zm45.26 216.88l0 206.05 107.32 0c13.14,0 25.55,-2.84 37.24,-8.51 11.67,-5.69 21.9,-13.18 30.65,-22.47 8.77,-9.3 15.7,-20.14 20.81,-32.53 5.11,-12.4 7.67,-25.56 7.67,-39.51 0,-13.94 -2.56,-27.24 -7.67,-39.89 -5.11,-12.65 -12.04,-23.63 -20.81,-32.92 -8.76,-9.29 -18.98,-16.65 -30.65,-22.07 -11.68,-5.43 -24.09,-8.15 -37.24,-8.15l-107.32 0zm0 -192.87l0 144.85 107.32 0c9.25,0 18.01,-2.07 26.28,-6.19 8.27,-4.13 15.46,-9.56 21.54,-16.28 6.08,-6.71 10.82,-14.46 14.24,-23.24 3.4,-8.78 5.11,-17.81 5.11,-27.1 0,-9.82 -1.71,-18.98 -5.11,-27.5 -3.41,-8.53 -8.16,-16.15 -14.24,-22.86 -6.08,-6.72 -13.27,-12 -21.54,-15.89 -8.27,-3.86 -17.03,-5.8 -26.28,-5.8l-107.32 0zm365.76 95.28c0,-6.72 2.19,-12.39 6.57,-17.04 4.38,-4.65 9.74,-6.97 16.07,-6.97 6.32,0 11.67,2.32 16.06,6.97 4.37,4.65 6.57,10.32 6.57,17.04l0 212.24c0,12.39 2.31,24.13 6.93,35.25 4.62,11.1 10.83,20.78 18.61,29.04 7.8,8.27 16.93,14.72 27.39,19.37 10.46,4.64 21.53,6.97 33.22,6.97 11.67,0 22.63,-2.33 32.85,-6.97 10.21,-4.65 19.1,-10.84 26.64,-18.59 7.55,-7.74 13.63,-16.91 18.25,-27.5 4.62,-10.58 7.18,-21.82 7.67,-33.7l0 -216.1c0,-6.72 2.19,-12.39 6.56,-17.04 4.38,-4.65 9.74,-6.97 16.07,-6.97 6.33,0 11.68,2.32 16.07,6.97 4.38,4.65 6.56,10.32 6.56,17.04l0 327.66c0,6.71 -2.18,12.39 -6.56,17.03 -4.38,4.64 -9.74,6.97 -16.07,6.97 -6.33,0 -11.68,-2.33 -16.07,-6.97 -4.37,-4.64 -6.56,-10.32 -6.56,-17.03l0 -10.08c-11.2,10.32 -24.09,18.59 -38.69,24.78 -14.61,6.2 -30.19,9.3 -46.72,9.3 -18.01,0 -35.05,-3.61 -51.11,-10.84 -16.06,-7.23 -30.05,-17.17 -41.98,-29.83 -11.92,-12.64 -21.29,-27.49 -28.11,-44.53 -6.81,-17.03 -10.21,-35.12 -10.21,-54.22l0 -212.24zm359.19 73.58c0,-18.07 3.4,-33.3 10.21,-45.7 6.81,-12.39 15.82,-22.46 27.01,-30.21 11.2,-7.75 23.85,-13.3 37.96,-16.66 14.12,-3.36 28.23,-5.03 42.35,-5.03 11.68,0 24.08,1.42 37.23,4.25 13.14,2.85 25.31,7.1 36.52,12.78 11.18,5.69 20.43,12.65 27.74,20.92 7.29,8.26 10.94,18.07 10.94,29.44 0,5.67 -1.82,11.22 -5.47,16.66 -3.65,5.42 -9.61,8.13 -17.89,8.13 -9.25,0 -16.3,-5.68 -21.16,-17.04 -4.38,-9.82 -12.91,-17.17 -25.56,-22.08 -12.65,-4.9 -26.76,-7.36 -42.34,-7.36 -8.28,0 -16.67,0.65 -25.19,1.94 -8.52,1.3 -16.18,3.88 -23,7.75 -6.81,3.87 -12.53,9.17 -17.15,15.88 -4.62,6.72 -6.94,15.5 -6.94,26.34 0,7.75 2.32,14.46 6.94,20.14 4.62,5.67 10.46,10.45 17.52,14.34 7.06,3.86 14.84,6.84 23.36,8.9 8.52,2.07 16.68,3.87 24.46,5.42 18,3.1 34.92,7.62 50.74,13.56 15.82,5.94 29.69,13.55 41.62,22.86 11.92,9.29 21.41,20.39 28.47,33.3 7.06,12.91 10.58,27.89 10.58,44.92 0,17.03 -3.4,32.66 -10.21,46.86 -6.82,14.2 -16.19,26.34 -28.12,36.42 -11.91,10.07 -25.91,17.81 -41.98,23.24 -16.06,5.42 -33.09,8.13 -51.09,8.13 -30.66,0 -57.56,-7.49 -80.67,-22.47 -23.12,-14.97 -38.57,-35.63 -46.36,-61.96 -0.49,-1.56 -0.73,-3.87 -0.73,-6.98 0,-6.7 2.08,-12.64 6.21,-17.81 4.13,-5.16 9.61,-7.74 16.42,-7.74 5.36,0 10.11,1.67 14.24,5.03 4.13,3.35 7.43,7.88 9.86,13.55 6.33,16.53 17.15,29.06 32.48,37.57 15.34,8.51 31.52,12.77 48.56,12.77 23.84,0 44.17,-5.8 60.95,-17.42 16.81,-11.61 25.19,-28.02 25.19,-49.19 0,-17.03 -8.27,-31.49 -24.82,-43.37 -16.55,-11.89 -36.99,-19.64 -61.32,-23.25 -35.05,-5.16 -63.4,-15.37 -85.05,-30.61 -21.66,-15.23 -32.48,-37.31 -32.48,-66.22zm334.35 -74.36c0,-6.71 2.2,-12.4 6.58,-17.03 4.37,-4.65 9.74,-6.98 16.07,-6.98 6.32,0 11.67,2.33 16.05,6.98 4.38,4.63 6.58,10.32 6.58,17.03l0 328.44c0,6.71 -2.2,12.39 -6.58,17.03 -4.37,4.64 -9.73,6.97 -16.05,6.97 -6.33,0 -11.69,-2.33 -16.07,-6.97 -4.38,-4.64 -6.58,-10.32 -6.58,-17.03l0 -328.44zm-7.29 -110.78c0,-8.77 2.92,-16.26 8.76,-22.45 5.84,-6.21 12.89,-9.31 21.18,-9.31 8.27,0 15.32,3.1 21.16,9.31 5.84,6.19 8.77,13.68 8.77,22.45 0,8.79 -2.93,16.28 -8.77,22.47 -5.84,6.2 -12.89,9.3 -21.16,9.3 -8.29,0 -15.34,-3.1 -21.18,-9.3 -5.84,-6.19 -8.76,-13.68 -8.76,-22.47zm154.03 110.78c0,-6.71 2.19,-12.4 6.57,-17.03 4.37,-4.65 9.74,-6.98 16.07,-6.98 6.32,0 11.67,2.33 16.05,6.98 4.38,4.63 6.58,10.32 6.58,17.03l0 10.07c11.19,-10.32 24.09,-18.58 38.69,-24.78 14.6,-6.2 30.18,-9.3 46.72,-9.3 18,0 35.05,3.61 51.1,10.84 16.07,7.23 30.06,17.17 41.98,29.83 11.92,12.64 21.3,27.5 28.11,44.54 6.81,17.02 10.21,35.11 10.21,54.21l0 213.03c0,6.71 -2.19,12.39 -6.56,17.03 -4.38,4.64 -9.74,6.97 -16.07,6.97 -6.33,0 -11.67,-2.33 -16.06,-6.97 -4.39,-4.64 -6.57,-10.32 -6.57,-17.03l0 -213.03c0,-12.39 -2.32,-24.13 -6.94,-35.24 -4.62,-11.11 -10.82,-20.78 -18.62,-29.05 -7.78,-8.26 -16.91,-14.72 -27.37,-19.37 -10.46,-4.64 -21.54,-6.97 -33.22,-6.97 -11.68,0 -22.63,2.33 -32.85,6.97 -10.22,4.65 -19.22,10.84 -27.01,18.59 -7.79,7.75 -13.87,16.92 -18.25,27.5 -4.38,10.58 -6.81,21.83 -7.3,33.7l0 216.89c0,6.71 -2.2,12.39 -6.58,17.03 -4.37,4.64 -9.73,6.97 -16.05,6.97 -6.33,0 -11.69,-2.33 -16.07,-6.97 -4.38,-4.64 -6.57,-10.32 -6.57,-17.03l0 -328.44zm394.24 188.22c2.43,16.53 7.54,31.89 15.32,46.09 7.8,14.2 17.4,26.46 28.84,36.8 11.44,10.32 24.46,18.46 39.06,24.4 14.6,5.94 29.94,8.9 45.99,8.9 18.01,0 34.8,-3.47 50.38,-10.45 15.57,-6.97 29.45,-16.66 41.61,-29.05 4.38,-4.64 9.74,-6.97 16.07,-6.97 6.32,0 11.68,2.33 16.06,6.97 4.38,4.64 6.58,10.33 6.58,17.04 0,6.72 -2.2,12.39 -6.58,17.04 -16.06,19.1 -34.19,32.66 -54.38,40.66 -20.2,8.01 -43.45,12.01 -69.73,12.01 -24.33,0 -47.09,-4.65 -68.26,-13.95 -21.17,-9.29 -39.79,-22.2 -55.86,-38.72 -16.06,-16.53 -28.7,-36.16 -37.96,-58.87 -9.25,-22.73 -13.87,-47.51 -13.87,-74.36 0,-25.82 4.5,-49.97 13.52,-72.43 9,-22.47 21.41,-42.09 37.23,-58.86 15.82,-16.79 34.55,-30.22 56.22,-40.28 21.66,-10.07 45.13,-15.63 70.45,-16.65 22.88,0 44.9,4.9 66.07,14.71 21.18,9.82 39.79,23.25 55.85,40.28 16.07,17.04 28.96,36.8 38.69,59.26 9.74,22.46 14.6,46.6 14.6,72.41 0,7.76 -2.43,13.7 -7.29,17.82 -4.87,4.13 -9.99,6.19 -15.34,6.19l-283.25 0zm258.43 -48.02c-2.92,-16.01 -8.27,-30.98 -16.06,-44.93 -7.79,-13.93 -17.4,-25.94 -28.84,-36.02 -11.44,-10.07 -24.33,-18.07 -38.69,-24.01 -14.36,-5.94 -29.57,-8.9 -45.63,-8.9 -16.06,0 -31.27,2.96 -45.62,8.9 -14.36,5.94 -27.26,13.95 -38.7,24.01 -11.42,10.08 -20.92,22.09 -28.47,36.02 -7.54,13.95 -12.77,28.93 -15.7,44.93l257.71 0zm121.2 -65.84c0,-18.07 3.4,-33.3 10.21,-45.7 6.81,-12.39 15.82,-22.46 27.01,-30.21 11.19,-7.75 23.85,-13.3 37.96,-16.66 14.12,-3.36 28.23,-5.03 42.35,-5.03 11.67,0 24.08,1.42 37.23,4.25 13.14,2.85 25.31,7.1 36.51,12.78 11.19,5.69 20.44,12.65 27.75,20.92 7.29,8.26 10.94,18.07 10.94,29.44 0,5.67 -1.82,11.22 -5.48,16.66 -3.64,5.42 -9.61,8.13 -17.88,8.13 -9.25,0 -16.3,-5.68 -21.16,-17.04 -4.38,-9.82 -12.91,-17.17 -25.56,-22.08 -12.65,-4.9 -26.76,-7.36 -42.34,-7.36 -8.28,0 -16.68,0.65 -25.19,1.94 -8.52,1.3 -16.18,3.88 -23,7.75 -6.81,3.87 -12.53,9.17 -17.15,15.88 -4.62,6.72 -6.94,15.5 -6.94,26.34 0,7.75 2.32,14.46 6.94,20.14 4.62,5.67 10.45,10.45 17.52,14.34 7.06,3.86 14.84,6.84 23.36,8.9 8.52,2.07 16.68,3.87 24.46,5.42 18,3.1 34.92,7.62 50.74,13.56 15.82,5.94 29.69,13.55 41.61,22.86 11.93,9.29 21.42,20.39 28.48,33.3 7.06,12.91 10.58,27.89 10.58,44.92 0,17.03 -3.4,32.66 -10.22,46.86 -6.81,14.2 -16.18,26.34 -28.11,36.42 -11.91,10.07 -25.91,17.81 -41.98,23.24 -16.06,5.42 -33.09,8.13 -51.09,8.13 -30.67,0 -57.56,-7.49 -80.67,-22.47 -23.12,-14.97 -38.57,-35.63 -46.36,-61.96 -0.49,-1.56 -0.73,-3.87 -0.73,-6.98 0,-6.7 2.07,-12.64 6.21,-17.81 4.13,-5.16 9.6,-7.74 16.42,-7.74 5.36,0 10.11,1.67 14.24,5.03 4.13,3.35 7.42,7.88 9.86,13.55 6.33,16.53 17.15,29.06 32.48,37.57 15.34,8.51 31.52,12.77 48.56,12.77 23.84,0 44.17,-5.8 60.95,-17.42 16.81,-11.61 25.19,-28.02 25.19,-49.19 0,-17.03 -8.27,-31.49 -24.82,-43.37 -16.55,-11.89 -36.99,-19.64 -61.32,-23.25 -35.05,-5.16 -63.4,-15.37 -85.05,-30.61 -21.67,-15.23 -32.48,-37.31 -32.48,-66.22zm335.09 0c0,-18.07 3.4,-33.3 10.21,-45.7 6.82,-12.39 15.83,-22.46 27.01,-30.21 11.2,-7.75 23.85,-13.3 37.96,-16.66 14.12,-3.36 28.23,-5.03 42.35,-5.03 11.68,0 24.08,1.42 37.24,4.25 13.14,2.85 25.3,7.1 36.51,12.78 11.19,5.69 20.44,12.65 27.74,20.92 7.3,8.26 10.95,18.07 10.95,29.44 0,5.67 -1.83,11.22 -5.48,16.66 -3.64,5.42 -9.61,8.13 -17.88,8.13 -9.25,0 -16.31,-5.68 -21.17,-17.04 -4.38,-9.82 -12.9,-17.17 -25.56,-22.08 -12.65,-4.9 -26.76,-7.36 -42.34,-7.36 -8.28,0 -16.67,0.65 -25.18,1.94 -8.52,1.3 -16.19,3.88 -23,7.75 -6.82,3.87 -12.54,9.17 -17.16,15.88 -4.62,6.72 -6.93,15.5 -6.93,26.34 0,7.75 2.31,14.46 6.93,20.14 4.62,5.67 10.46,10.45 17.52,14.34 7.06,3.86 14.84,6.84 23.37,8.9 8.52,2.07 16.67,3.87 24.45,5.42 18.01,3.1 34.92,7.62 50.75,13.56 15.81,5.94 29.68,13.55 41.61,22.86 11.92,9.29 21.41,20.39 28.47,33.3 7.06,12.91 10.59,27.89 10.59,44.92 0,17.03 -3.41,32.66 -10.22,46.86 -6.82,14.2 -16.19,26.34 -28.11,36.42 -11.92,10.07 -25.92,17.81 -41.98,23.24 -16.07,5.42 -33.09,8.13 -51.1,8.13 -30.66,0 -57.55,-7.49 -80.67,-22.47 -23.12,-14.97 -38.56,-35.63 -46.36,-61.96 -0.49,-1.56 -0.73,-3.87 -0.73,-6.98 0,-6.7 2.08,-12.64 6.21,-17.81 4.13,-5.16 9.61,-7.74 16.43,-7.74 5.35,0 10.1,1.67 14.24,5.03 4.13,3.35 7.42,7.88 9.85,13.55 6.33,16.53 17.16,29.06 32.49,37.57 15.33,8.51 31.51,12.77 48.55,12.77 23.84,0 44.17,-5.8 60.96,-17.42 16.8,-11.61 25.18,-28.02 25.18,-49.19 0,-17.03 -8.27,-31.49 -24.81,-43.37 -16.56,-11.89 -37,-19.64 -61.33,-23.25 -35.04,-5.16 -63.39,-15.37 -85.05,-30.61 -21.66,-15.23 -32.48,-37.31 -32.48,-66.22zm519.73 -192.88c0,-6.71 2.19,-12.4 6.56,-17.03 4.38,-4.65 9.74,-6.98 16.07,-6.98l221.93 0c6.33,0 11.69,2.33 16.07,6.98 4.38,4.63 6.58,10.32 6.58,17.03 0,6.72 -2.2,12.39 -6.58,17.04 -4.37,4.64 -9.74,6.97 -16.07,6.97l-199.31 0 0 172.73 132.87 0c6.33,0 11.68,2.33 16.07,6.98 4.38,4.64 6.57,10.33 6.57,17.04 0,6.71 -2.19,12.39 -6.57,17.04 -4.38,4.64 -9.74,6.96 -16.07,6.96l-132.87 0 0 178.16 199.31 0c6.33,0 11.69,2.33 16.07,6.98 4.38,4.64 6.58,10.32 6.58,17.04 0,6.71 -2.2,12.39 -6.58,17.03 -4.37,4.64 -9.74,6.97 -16.07,6.97l-221.93 0c-6.33,0 -11.68,-2.33 -16.07,-6.97 -4.37,-4.64 -6.56,-10.32 -6.56,-17.03l0 -446.95zm637.34 400.47c-16.07,19.1 -35.41,35.51 -58.03,49.19 -22.64,13.69 -47.09,20.53 -73.38,20.53 -24.33,0 -47.08,-4.65 -68.25,-13.95 -21.18,-9.29 -39.79,-22.2 -55.86,-38.72 -16.06,-16.53 -28.72,-36.16 -37.96,-58.87 -9.25,-22.73 -13.87,-47.51 -13.87,-74.36 0,-25.82 4.5,-50.22 13.5,-73.2 9.02,-22.99 21.43,-42.99 37.25,-60.03 15.81,-17.03 34.55,-30.47 56.22,-40.28 21.65,-9.81 45.13,-14.71 70.45,-14.71 23.36,0 45.62,5.03 66.8,15.09 21.17,10.08 39.79,23.64 55.85,40.68 16.07,17.03 28.84,36.92 38.32,59.64 9.5,22.73 14.24,46.99 14.24,72.81l0 163.44c0,6.71 -2.19,12.39 -6.57,17.04 -4.38,4.63 -9.73,6.96 -16.06,6.96 -6.33,0 -11.69,-2.33 -16.07,-6.96 -4.38,-4.65 -6.57,-10.33 -6.57,-17.04l0 -47.25zm0 -116.19c0,-19.11 -3.41,-37.19 -10.21,-54.22 -6.82,-17.04 -16.19,-31.89 -28.11,-44.54 -11.93,-12.65 -25.92,-22.6 -41.98,-29.83 -16.07,-7.22 -33.1,-10.83 -51.11,-10.83 -18,0 -34.91,3.61 -50.74,10.83 -15.82,7.23 -29.69,17.17 -41.61,29.83 -11.93,12.65 -21.3,27.5 -28.11,44.54 -6.82,17.03 -10.21,35.11 -10.21,54.22 0,19.1 3.4,37.05 10.21,53.83 6.81,16.79 16.18,31.5 28.11,44.16 11.92,12.65 25.79,22.6 41.61,29.83 15.83,7.23 32.73,10.83 50.74,10.83 17.53,0 34.07,-3.47 49.65,-10.45 15.58,-6.97 29.33,-16.66 41.25,-29.05 11.93,-12.38 21.42,-26.98 28.47,-43.77 7.07,-16.78 11.08,-35.24 12.05,-55.38zm138.71 -91.41c0,-18.07 3.41,-33.3 10.21,-45.7 6.82,-12.39 15.83,-22.46 27.02,-30.21 11.19,-7.75 23.85,-13.3 37.96,-16.66 14.12,-3.36 28.23,-5.03 42.35,-5.03 11.67,0 24.08,1.42 37.23,4.25 13.14,2.85 25.31,7.1 36.51,12.78 11.19,5.69 20.44,12.65 27.74,20.92 7.3,8.26 10.95,18.07 10.95,29.44 0,5.67 -1.83,11.22 -5.48,16.66 -3.64,5.42 -9.61,8.13 -17.88,8.13 -9.25,0 -16.31,-5.68 -21.17,-17.04 -4.38,-9.82 -12.9,-17.17 -25.55,-22.08 -12.66,-4.9 -26.77,-7.36 -42.34,-7.36 -8.29,0 -16.68,0.65 -25.19,1.94 -8.52,1.3 -16.19,3.88 -23,7.75 -6.82,3.87 -12.54,9.17 -17.16,15.88 -4.62,6.72 -6.93,15.5 -6.93,26.34 0,7.75 2.31,14.46 6.93,20.14 4.62,5.67 10.46,10.45 17.53,14.34 7.05,3.86 14.84,6.84 23.36,8.9 8.52,2.07 16.67,3.87 24.46,5.42 18,3.1 34.91,7.62 50.74,13.56 15.82,5.94 29.69,13.55 41.61,22.86 11.93,9.29 21.42,20.39 28.47,33.3 7.07,12.91 10.59,27.89 10.59,44.92 0,17.03 -3.4,32.66 -10.22,46.86 -6.81,14.2 -16.18,26.34 -28.11,36.42 -11.91,10.07 -25.91,17.81 -41.98,23.24 -16.07,5.42 -33.09,8.13 -51.09,8.13 -30.67,0 -57.56,-7.49 -80.67,-22.47 -23.12,-14.97 -38.57,-35.63 -46.37,-61.96 -0.48,-1.56 -0.72,-3.87 -0.72,-6.98 0,-6.7 2.07,-12.64 6.2,-17.81 4.13,-5.16 9.61,-7.74 16.43,-7.74 5.36,0 10.11,1.67 14.24,5.03 4.13,3.35 7.42,7.88 9.86,13.55 6.32,16.53 17.15,29.06 32.48,37.57 15.34,8.51 31.51,12.77 48.56,12.77 23.84,0 44.16,-5.8 60.95,-17.42 16.8,-11.61 25.19,-28.02 25.19,-49.19 0,-17.03 -8.28,-31.49 -24.82,-43.37 -16.56,-11.89 -36.99,-19.64 -61.32,-23.25 -35.05,-5.16 -63.4,-15.37 -85.05,-30.61 -21.67,-15.23 -32.49,-37.31 -32.49,-66.22zm370.15 113.86c2.43,16.53 7.54,31.89 15.32,46.09 7.8,14.2 17.4,26.46 28.84,36.8 11.44,10.32 24.46,18.46 39.06,24.4 14.6,5.94 29.94,8.9 45.99,8.9 18.01,0 34.8,-3.47 50.38,-10.45 15.57,-6.97 29.45,-16.66 41.61,-29.05 4.38,-4.64 9.74,-6.97 16.07,-6.97 6.32,0 11.68,2.33 16.06,6.97 4.38,4.64 6.58,10.33 6.58,17.04 0,6.72 -2.2,12.39 -6.58,17.04 -16.06,19.1 -34.19,32.66 -54.38,40.66 -20.2,8.01 -43.45,12.01 -69.73,12.01 -24.33,0 -47.09,-4.65 -68.26,-13.95 -21.17,-9.29 -39.79,-22.2 -55.86,-38.72 -16.06,-16.53 -28.7,-36.16 -37.96,-58.87 -9.25,-22.73 -13.87,-47.51 -13.87,-74.36 0,-25.82 4.5,-49.97 13.52,-72.43 9,-22.47 21.41,-42.09 37.23,-58.86 15.82,-16.79 34.55,-30.22 56.22,-40.28 21.66,-10.07 45.13,-15.63 70.45,-16.65 22.88,0 44.9,4.9 66.07,14.71 21.18,9.82 39.79,23.25 55.85,40.28 16.07,17.04 28.96,36.8 38.69,59.26 9.74,22.46 14.6,46.6 14.6,72.41 0,7.76 -2.43,13.7 -7.29,17.82 -4.87,4.13 -9.99,6.19 -15.34,6.19l-283.25 0zm258.43 -48.02c-2.92,-16.01 -8.27,-30.98 -16.06,-44.93 -7.79,-13.93 -17.4,-25.94 -28.84,-36.02 -11.44,-10.07 -24.33,-18.07 -38.69,-24.01 -14.36,-5.94 -29.57,-8.9 -45.63,-8.9 -16.06,0 -31.27,2.96 -45.62,8.9 -14.36,5.94 -27.26,13.95 -38.7,24.01 -11.43,10.08 -20.93,22.09 -28.47,36.02 -7.54,13.95 -12.77,28.93 -15.7,44.93l257.71 0zm103.66 180.48c0,-8.78 2.93,-16.28 8.77,-22.47 5.84,-6.2 12.9,-9.3 21.17,-9.3 8.28,0 15.34,3.1 21.18,9.3 5.83,6.19 8.76,13.69 8.76,22.47 0,8.77 -2.93,16.27 -8.76,22.46 -5.84,6.2 -12.9,9.3 -21.18,9.3 -8.27,0 -15.33,-3.1 -21.17,-9.3 -5.84,-6.19 -8.77,-13.69 -8.77,-22.46zm335.1 -439.2c0,-6.71 2.19,-12.4 6.57,-17.03 4.38,-4.65 9.74,-6.98 16.07,-6.98l129.95 0c15.57,0 30.18,3.1 43.8,9.31 13.64,6.19 25.56,14.71 35.78,25.55 10.22,10.84 18.37,23.63 24.46,38.34 6.08,14.72 9.13,30.35 9.13,46.87 0,18.58 -3.89,35.88 -11.69,51.89 -7.78,16.01 -18,29.69 -30.65,41.05 21.41,12.91 38.57,30.85 51.47,53.84 12.89,22.97 19.34,48.66 19.34,77.07 0,20.66 -3.64,40.16 -10.95,58.48 -7.3,18.33 -17.39,34.34 -30.3,48.02 -12.9,13.7 -27.99,24.53 -45.26,32.53 -17.27,8.01 -35.65,12.01 -55.12,12.01l-129.95 0c-6.33,0 -11.68,-2.33 -16.07,-6.97 -4.38,-4.64 -6.57,-10.32 -6.57,-17.03l0 -446.95zm45.26 216.88l0 206.05 107.32 0c13.14,0 25.55,-2.84 37.24,-8.51 11.67,-5.69 21.9,-13.18 30.65,-22.47 8.77,-9.3 15.7,-20.14 20.81,-32.53 5.11,-12.4 7.67,-25.56 7.67,-39.51 0,-13.94 -2.56,-27.24 -7.67,-39.89 -5.11,-12.65 -12.04,-23.63 -20.81,-32.92 -8.76,-9.29 -18.98,-16.65 -30.65,-22.07 -11.68,-5.43 -24.09,-8.15 -37.24,-8.15l-107.32 0zm0 -192.87l0 144.85 107.32 0c9.25,0 18.01,-2.07 26.28,-6.19 8.27,-4.13 15.46,-9.56 21.54,-16.28 6.08,-6.71 10.82,-14.46 14.24,-23.24 3.4,-8.78 5.11,-17.81 5.11,-27.1 0,-9.82 -1.71,-18.98 -5.11,-27.5 -3.41,-8.53 -8.16,-16.15 -14.24,-22.86 -6.08,-6.72 -13.27,-12 -21.54,-15.89 -8.27,-3.86 -17.03,-5.8 -26.28,-5.8l-107.32 0zm365.69 95.28c0,-6.72 2.19,-12.39 6.57,-17.04 4.38,-4.65 9.74,-6.97 16.07,-6.97 6.32,0 11.67,2.32 16.06,6.97 4.37,4.65 6.57,10.32 6.57,17.04l0 212.24c0,12.39 2.31,24.13 6.93,35.25 4.62,11.1 10.83,20.78 18.61,29.04 7.8,8.27 16.93,14.72 27.39,19.37 10.45,4.64 21.53,6.97 33.22,6.97 11.67,0 22.63,-2.33 32.85,-6.97 10.21,-4.65 19.1,-10.84 26.64,-18.59 7.55,-7.74 13.63,-16.91 18.25,-27.5 4.62,-10.58 7.18,-21.82 7.67,-33.7l0 -216.1c0,-6.72 2.19,-12.39 6.56,-17.04 4.38,-4.65 9.74,-6.97 16.07,-6.97 6.33,0 11.67,2.32 16.07,6.97 4.38,4.65 6.56,10.32 6.56,17.04l0 327.66c0,6.71 -2.18,12.39 -6.56,17.03 -4.39,4.64 -9.74,6.97 -16.07,6.97 -6.33,0 -11.68,-2.33 -16.07,-6.97 -4.37,-4.64 -6.56,-10.32 -6.56,-17.03l0 -10.08c-11.2,10.32 -24.09,18.59 -38.69,24.78 -14.61,6.2 -30.19,9.3 -46.72,9.3 -18.02,0 -35.05,-3.61 -51.11,-10.84 -16.06,-7.23 -30.05,-17.17 -41.98,-29.83 -11.92,-12.64 -21.29,-27.49 -28.11,-44.53 -6.81,-17.03 -10.21,-35.12 -10.21,-54.22l0 -212.24zm359.19 73.58c0,-18.07 3.4,-33.3 10.21,-45.7 6.81,-12.39 15.82,-22.46 27.01,-30.21 11.2,-7.75 23.85,-13.3 37.96,-16.66 14.12,-3.36 28.23,-5.03 42.35,-5.03 11.68,0 24.08,1.42 37.23,4.25 13.14,2.85 25.31,7.1 36.51,12.78 11.19,5.69 20.44,12.65 27.75,20.92 7.29,8.26 10.94,18.07 10.94,29.44 0,5.67 -1.82,11.22 -5.48,16.66 -3.64,5.42 -9.6,8.13 -17.88,8.13 -9.25,0 -16.3,-5.68 -21.16,-17.04 -4.38,-9.82 -12.91,-17.17 -25.56,-22.08 -12.65,-4.9 -26.76,-7.36 -42.34,-7.36 -8.28,0 -16.67,0.65 -25.19,1.94 -8.52,1.3 -16.18,3.88 -23,7.75 -6.81,3.87 -12.53,9.17 -17.15,15.88 -4.62,6.72 -6.94,15.5 -6.94,26.34 0,7.75 2.32,14.46 6.94,20.14 4.62,5.67 10.46,10.45 17.52,14.34 7.06,3.86 14.84,6.84 23.36,8.9 8.52,2.07 16.68,3.87 24.46,5.42 18,3.1 34.92,7.62 50.74,13.56 15.82,5.94 29.69,13.55 41.62,22.86 11.92,9.29 21.41,20.39 28.47,33.3 7.06,12.91 10.58,27.89 10.58,44.92 0,17.03 -3.4,32.66 -10.22,46.86 -6.81,14.2 -16.18,26.34 -28.11,36.42 -11.91,10.07 -25.91,17.81 -41.98,23.24 -16.06,5.42 -33.09,8.13 -51.09,8.13 -30.67,0 -57.56,-7.49 -80.67,-22.47 -23.12,-14.97 -38.57,-35.63 -46.36,-61.96 -0.49,-1.56 -0.73,-3.87 -0.73,-6.98 0,-6.7 2.07,-12.64 6.21,-17.81 4.13,-5.16 9.61,-7.74 16.42,-7.74 5.36,0 10.11,1.67 14.24,5.03 4.13,3.35 7.43,7.88 9.86,13.55 6.33,16.53 17.15,29.06 32.48,37.57 15.34,8.51 31.52,12.77 48.56,12.77 23.84,0 44.17,-5.8 60.95,-17.42 16.81,-11.61 25.19,-28.02 25.19,-49.19 0,-17.03 -8.27,-31.49 -24.82,-43.37 -16.55,-11.89 -36.99,-19.64 -61.32,-23.25 -35.05,-5.16 -63.4,-15.37 -85.05,-30.61 -21.67,-15.23 -32.48,-37.31 -32.48,-66.22zm334.35 -74.36c0,-6.71 2.2,-12.4 6.58,-17.03 4.37,-4.65 9.74,-6.98 16.07,-6.98 6.32,0 11.67,2.33 16.05,6.98 4.38,4.63 6.58,10.32 6.58,17.03l0 328.44c0,6.71 -2.2,12.39 -6.58,17.03 -4.37,4.64 -9.73,6.97 -16.05,6.97 -6.33,0 -11.69,-2.33 -16.07,-6.97 -4.38,-4.64 -6.58,-10.32 -6.58,-17.03l0 -328.44zm-7.29 -110.78c0,-8.77 2.92,-16.26 8.76,-22.45 5.84,-6.21 12.89,-9.31 21.18,-9.31 8.27,0 15.32,3.1 21.16,9.31 5.84,6.19 8.77,13.68 8.77,22.45 0,8.79 -2.93,16.28 -8.77,22.47 -5.84,6.2 -12.89,9.3 -21.16,9.3 -8.29,0 -15.34,-3.1 -21.18,-9.3 -5.84,-6.19 -8.76,-13.68 -8.76,-22.47zm153.95 110.78c0,-6.71 2.2,-12.4 6.58,-17.03 4.37,-4.65 9.74,-6.98 16.07,-6.98 6.32,0 11.67,2.33 16.05,6.98 4.38,4.63 6.58,10.32 6.58,17.03l0 10.07c11.19,-10.32 24.09,-18.58 38.69,-24.78 14.6,-6.2 30.17,-9.3 46.72,-9.3 18,0 35.05,3.61 51.1,10.84 16.07,7.23 30.06,17.17 41.98,29.83 11.92,12.64 21.3,27.5 28.1,44.54 6.82,17.02 10.22,35.11 10.22,54.21l0 213.03c0,6.71 -2.19,12.39 -6.56,17.03 -4.38,4.64 -9.74,6.97 -16.07,6.97 -6.33,0 -11.67,-2.33 -16.07,-6.97 -4.38,-4.64 -6.56,-10.32 -6.56,-17.03l0 -213.03c0,-12.39 -2.32,-24.13 -6.94,-35.24 -4.62,-11.11 -10.82,-20.78 -18.62,-29.05 -7.78,-8.26 -16.91,-14.72 -27.37,-19.37 -10.46,-4.64 -21.54,-6.97 -33.22,-6.97 -11.68,0 -22.63,2.33 -32.85,6.97 -10.22,4.65 -19.22,10.84 -27.01,18.59 -7.79,7.75 -13.87,16.92 -18.25,27.5 -4.38,10.58 -6.81,21.83 -7.3,33.7l0 216.89c0,6.71 -2.2,12.39 -6.58,17.03 -4.37,4.64 -9.73,6.97 -16.05,6.97 -6.33,0 -11.69,-2.33 -16.07,-6.97 -4.38,-4.64 -6.58,-10.32 -6.58,-17.03l0 -328.44zm394.25 188.22c2.43,16.53 7.54,31.89 15.32,46.09 7.8,14.2 17.4,26.46 28.84,36.8 11.44,10.32 24.46,18.46 39.06,24.4 14.6,5.94 29.94,8.9 45.99,8.9 18.01,0 34.8,-3.47 50.38,-10.45 15.57,-6.97 29.45,-16.66 41.61,-29.05 4.38,-4.64 9.74,-6.97 16.07,-6.97 6.32,0 11.68,2.33 16.06,6.97 4.38,4.64 6.58,10.33 6.58,17.04 0,6.72 -2.2,12.39 -6.58,17.04 -16.06,19.1 -34.19,32.66 -54.38,40.66 -20.2,8.01 -43.45,12.01 -69.73,12.01 -24.33,0 -47.09,-4.65 -68.26,-13.95 -21.17,-9.29 -39.79,-22.2 -55.86,-38.72 -16.06,-16.53 -28.71,-36.16 -37.96,-58.87 -9.25,-22.73 -13.87,-47.51 -13.87,-74.36 0,-25.82 4.5,-49.97 13.52,-72.43 9,-22.47 21.41,-42.09 37.23,-58.86 15.82,-16.79 34.55,-30.22 56.22,-40.28 21.66,-10.07 45.13,-15.63 70.45,-16.65 22.88,0 44.9,4.9 66.07,14.71 21.18,9.82 39.79,23.25 55.85,40.28 16.07,17.04 28.96,36.8 38.69,59.26 9.74,22.46 14.6,46.6 14.6,72.41 0,7.76 -2.43,13.7 -7.29,17.82 -4.87,4.13 -9.99,6.19 -15.34,6.19l-283.25 0zm258.43 -48.02c-2.92,-16.01 -8.27,-30.98 -16.06,-44.93 -7.79,-13.93 -17.4,-25.94 -28.84,-36.02 -11.44,-10.07 -24.33,-18.07 -38.69,-24.01 -14.36,-5.94 -29.57,-8.9 -45.63,-8.9 -16.06,0 -31.27,2.96 -45.62,8.9 -14.36,5.94 -27.26,13.95 -38.7,24.01 -11.43,10.08 -20.93,22.09 -28.47,36.02 -7.54,13.95 -12.77,28.93 -15.7,44.93l257.71 0zm121.12 -65.84c0,-18.07 3.4,-33.3 10.2,-45.7 6.82,-12.39 15.83,-22.46 27.02,-30.21 11.19,-7.75 23.85,-13.3 37.96,-16.66 14.12,-3.36 28.23,-5.03 42.35,-5.03 11.67,0 24.08,1.42 37.23,4.25 13.14,2.85 25.31,7.1 36.51,12.78 11.19,5.69 20.44,12.65 27.75,20.92 7.29,8.26 10.94,18.07 10.94,29.44 0,5.67 -1.82,11.22 -5.48,16.66 -3.64,5.42 -9.61,8.13 -17.88,8.13 -9.25,0 -16.3,-5.68 -21.16,-17.04 -4.38,-9.82 -12.91,-17.17 -25.56,-22.08 -12.65,-4.9 -26.76,-7.36 -42.34,-7.36 -8.28,0 -16.68,0.65 -25.19,1.94 -8.52,1.3 -16.18,3.88 -23,7.75 -6.82,3.87 -12.53,9.17 -17.15,15.88 -4.62,6.72 -6.94,15.5 -6.94,26.34 0,7.75 2.32,14.46 6.94,20.14 4.62,5.67 10.45,10.45 17.52,14.34 7.05,3.86 14.84,6.84 23.36,8.9 8.52,2.07 16.68,3.87 24.46,5.42 18,3.1 34.92,7.62 50.74,13.56 15.82,5.94 29.69,13.55 41.61,22.86 11.93,9.29 21.42,20.39 28.47,33.3 7.07,12.91 10.59,27.89 10.59,44.92 0,17.03 -3.4,32.66 -10.22,46.86 -6.81,14.2 -16.18,26.34 -28.11,36.42 -11.91,10.07 -25.91,17.81 -41.98,23.24 -16.06,5.42 -33.09,8.13 -51.09,8.13 -30.67,0 -57.56,-7.49 -80.67,-22.47 -23.12,-14.97 -38.57,-35.63 -46.36,-61.96 -0.49,-1.56 -0.73,-3.87 -0.73,-6.98 0,-6.7 2.07,-12.64 6.2,-17.81 4.14,-5.16 9.61,-7.74 16.43,-7.74 5.36,0 10.11,1.67 14.24,5.03 4.13,3.35 7.42,7.88 9.86,13.55 6.33,16.53 17.15,29.06 32.48,37.57 15.34,8.51 31.51,12.77 48.56,12.77 23.84,0 44.17,-5.8 60.95,-17.42 16.81,-11.61 25.19,-28.02 25.19,-49.19 0,-17.03 -8.27,-31.49 -24.82,-43.37 -16.56,-11.89 -36.99,-19.64 -61.32,-23.25 -35.05,-5.16 -63.4,-15.37 -85.05,-30.61 -21.67,-15.23 -32.48,-37.31 -32.48,-66.22zm335.09 0c0,-18.07 3.4,-33.3 10.21,-45.7 6.82,-12.39 15.83,-22.46 27.01,-30.21 11.2,-7.75 23.85,-13.3 37.96,-16.66 14.12,-3.36 28.23,-5.03 42.35,-5.03 11.68,0 24.08,1.42 37.24,4.25 13.14,2.85 25.3,7.1 36.51,12.78 11.19,5.69 20.44,12.65 27.74,20.92 7.29,8.26 10.95,18.07 10.95,29.44 0,5.67 -1.83,11.22 -5.48,16.66 -3.64,5.42 -9.61,8.13 -17.88,8.13 -9.25,0 -16.31,-5.68 -21.17,-17.04 -4.38,-9.82 -12.9,-17.17 -25.56,-22.08 -12.65,-4.9 -26.76,-7.36 -42.34,-7.36 -8.28,0 -16.67,0.65 -25.18,1.94 -8.53,1.3 -16.19,3.88 -23,7.75 -6.82,3.87 -12.54,9.17 -17.16,15.88 -4.62,6.72 -6.93,15.5 -6.93,26.34 0,7.75 2.31,14.46 6.93,20.14 4.62,5.67 10.46,10.45 17.52,14.34 7.06,3.86 14.84,6.84 23.37,8.9 8.52,2.07 16.67,3.87 24.45,5.42 18.01,3.1 34.92,7.62 50.75,13.56 15.81,5.94 29.68,13.55 41.61,22.86 11.92,9.29 21.41,20.39 28.47,33.3 7.06,12.91 10.59,27.89 10.59,44.92 0,17.03 -3.41,32.66 -10.22,46.86 -6.82,14.2 -16.19,26.34 -28.11,36.42 -11.92,10.07 -25.92,17.81 -41.98,23.24 -16.07,5.42 -33.09,8.13 -51.1,8.13 -30.66,0 -57.56,-7.49 -80.67,-22.47 -23.12,-14.97 -38.57,-35.63 -46.36,-61.96 -0.49,-1.56 -0.73,-3.87 -0.73,-6.98 0,-6.7 2.08,-12.64 6.21,-17.81 4.13,-5.16 9.61,-7.74 16.43,-7.74 5.35,0 10.1,1.67 14.24,5.03 4.13,3.35 7.42,7.88 9.85,13.55 6.33,16.53 17.16,29.06 32.49,37.57 15.33,8.51 31.51,12.77 48.55,12.77 23.84,0 44.17,-5.8 60.96,-17.42 16.8,-11.61 25.18,-28.02 25.18,-49.19 0,-17.03 -8.27,-31.49 -24.82,-43.37 -16.55,-11.89 -36.99,-19.64 -61.32,-23.25 -35.04,-5.16 -63.39,-15.37 -85.05,-30.61 -21.66,-15.23 -32.48,-37.31 -32.48,-66.22zm518.33 -192.1c0,-6.72 2.2,-12.53 6.58,-17.43 4.37,-4.9 9.74,-7.36 16.06,-7.36l119 0c17.53,0 33.83,3.48 48.92,10.45 15.09,6.98 28.35,16.54 39.79,28.66 11.43,12.14 20.44,26.21 27.01,42.22 6.56,16.02 9.86,33.05 9.86,51.12 0,18.08 -3.3,35.25 -9.86,51.51 -6.57,16.27 -15.58,30.35 -27.01,42.22 -11.44,11.88 -24.7,21.3 -39.79,28.28 -15.09,6.97 -31.38,10.45 -48.92,10.45l-96.36 0 0 206.05c0,6.71 -2.2,12.39 -6.58,17.03 -4.37,4.64 -9.73,6.97 -16.06,6.97 -6.32,0 -11.68,-2.33 -16.06,-6.97 -4.38,-4.64 -6.58,-10.32 -6.58,-17.03l0 -446.17zm45.27 23.24l0 168.86 96.36 0c10.71,0 20.93,-2.19 30.66,-6.59 9.74,-4.38 18.25,-10.45 25.55,-18.19 7.3,-7.75 13.02,-16.67 17.15,-26.73 4.14,-10.08 6.2,-21.05 6.2,-32.92 0,-11.36 -2.06,-22.2 -6.2,-32.52 -4.13,-10.33 -9.86,-19.37 -17.15,-27.12 -7.3,-7.74 -15.82,-13.81 -25.55,-18.19 -9.74,-4.39 -19.95,-6.59 -30.66,-6.59l-96.36 0zm346.05 282.72c2.43,16.53 7.54,31.89 15.32,46.09 7.8,14.2 17.4,26.46 28.84,36.8 11.44,10.32 24.46,18.46 39.06,24.4 14.6,5.94 29.94,8.9 45.99,8.9 18.01,0 34.8,-3.47 50.38,-10.45 15.58,-6.97 29.45,-16.66 41.61,-29.05 4.38,-4.64 9.74,-6.97 16.07,-6.97 6.32,0 11.68,2.33 16.06,6.97 4.38,4.64 6.58,10.33 6.58,17.04 0,6.72 -2.2,12.39 -6.58,17.04 -16.06,19.1 -34.18,32.66 -54.38,40.66 -20.2,8.01 -43.45,12.01 -69.73,12.01 -24.32,0 -47.09,-4.65 -68.26,-13.95 -21.17,-9.29 -39.79,-22.2 -55.85,-38.72 -16.07,-16.53 -28.71,-36.16 -37.96,-58.87 -9.25,-22.73 -13.87,-47.51 -13.87,-74.36 0,-25.82 4.5,-49.97 13.51,-72.43 9,-22.47 21.41,-42.09 37.23,-58.86 15.83,-16.79 34.56,-30.22 56.22,-40.28 21.66,-10.07 45.14,-15.63 70.45,-16.65 22.88,0 44.9,4.9 66.07,14.71 21.18,9.82 39.79,23.25 55.86,40.28 16.06,17.04 28.95,36.8 38.68,59.26 9.74,22.46 14.6,46.6 14.6,72.41 0,7.76 -2.43,13.7 -7.29,17.82 -4.87,4.13 -9.99,6.19 -15.34,6.19l-283.25 0zm258.43 -48.02c-2.92,-16.01 -8.27,-30.98 -16.06,-44.93 -7.79,-13.93 -17.4,-25.94 -28.84,-36.02 -11.44,-10.07 -24.33,-18.07 -38.69,-24.01 -14.36,-5.94 -29.57,-8.9 -45.63,-8.9 -16.06,0 -31.27,2.96 -45.62,8.9 -14.36,5.94 -27.26,13.95 -38.7,24.01 -11.42,10.08 -20.92,22.09 -28.47,36.02 -7.54,13.95 -12.77,28.93 -15.69,44.93l257.7 0zm430.74 141.75c-16.07,19.1 -35.41,35.51 -58.03,49.19 -22.64,13.69 -47.09,20.53 -73.38,20.53 -24.33,0 -47.08,-4.65 -68.25,-13.95 -21.18,-9.29 -39.79,-22.2 -55.86,-38.72 -16.06,-16.53 -28.72,-36.16 -37.96,-58.87 -9.25,-22.73 -13.87,-47.51 -13.87,-74.36 0,-25.82 4.5,-50.22 13.5,-73.2 9.02,-22.99 21.43,-42.99 37.25,-60.03 15.81,-17.03 34.55,-30.47 56.22,-40.28 21.65,-9.81 45.13,-14.71 70.45,-14.71 23.36,0 45.62,5.03 66.8,15.09 21.17,10.08 39.79,23.64 55.85,40.68 16.07,17.03 28.84,36.92 38.32,59.64 9.5,22.73 14.24,46.99 14.24,72.81l0 163.44c0,6.71 -2.19,12.39 -6.57,17.04 -4.38,4.63 -9.73,6.96 -16.06,6.96 -6.33,0 -11.69,-2.33 -16.07,-6.96 -4.38,-4.65 -6.57,-10.33 -6.57,-17.04l0 -47.25zm0 -116.19c0,-19.11 -3.41,-37.19 -10.21,-54.22 -6.82,-17.04 -16.19,-31.89 -28.11,-44.54 -11.93,-12.65 -25.92,-22.6 -41.98,-29.83 -16.07,-7.22 -33.09,-10.83 -51.11,-10.83 -18,0 -34.91,3.61 -50.74,10.83 -15.82,7.23 -29.69,17.17 -41.61,29.83 -11.93,12.65 -21.3,27.5 -28.11,44.54 -6.82,17.03 -10.21,35.11 -10.21,54.22 0,19.1 3.4,37.05 10.21,53.83 6.81,16.79 16.18,31.5 28.11,44.16 11.92,12.65 25.79,22.6 41.61,29.83 15.83,7.23 32.73,10.83 50.74,10.83 17.53,0 34.07,-3.47 49.65,-10.45 15.58,-6.97 29.33,-16.66 41.25,-29.05 11.93,-12.38 21.42,-26.98 28.47,-43.77 7.07,-16.78 11.08,-35.24 12.05,-55.38zm305.89 -187.45c19.47,0 36.99,3.1 52.56,9.29 15.58,6.2 28.96,13.3 40.16,21.31 11.18,8 19.83,16.01 25.91,24 6.08,8.01 9.13,14.08 9.13,18.21 0,5.67 -2.19,10.58 -6.57,14.71 -4.37,4.13 -9.25,6.2 -14.6,6.2 -6.33,0 -11.68,-2.32 -16.07,-6.97 -12.16,-11.36 -26.03,-20.53 -41.61,-27.5 -15.58,-6.96 -32.36,-10.45 -50.38,-10.45 -18.01,0 -34.92,3.61 -50.75,10.84 -15.81,7.23 -29.69,17.17 -41.61,29.82 -11.92,12.66 -21.3,27.5 -28.11,44.54 -6.82,17.04 -10.21,35.12 -10.21,54.22 0,19.11 3.4,37.06 10.21,53.84 6.81,16.78 16.19,31.5 28.11,44.15 11.92,12.66 25.8,22.6 41.61,29.83 15.83,7.23 32.73,10.84 50.75,10.84 18.01,0 34.8,-3.48 50.38,-10.45 15.58,-6.98 29.45,-16.66 41.61,-29.05 4.38,-4.65 9.74,-6.97 16.07,-6.97 5.84,0 11.06,2.19 15.7,6.58 4.62,4.39 6.93,9.95 6.93,16.66 0,4.12 -2.8,10.2 -8.39,18.19 -5.6,8.02 -14,15.89 -25.19,23.64 -11.2,7.75 -24.94,14.46 -41.25,20.14 -16.31,5.67 -34.92,8.52 -55.85,8.52 -24.33,0 -47.09,-4.65 -68.26,-13.94 -21.18,-9.3 -39.79,-22.21 -55.85,-38.73 -16.07,-16.53 -28.72,-36.15 -37.96,-58.86 -9.25,-22.73 -13.87,-47.51 -13.87,-74.37 0,-25.81 4.5,-49.96 13.5,-72.42 9.01,-22.46 21.42,-42.08 37.24,-58.87 15.82,-16.78 34.56,-30.21 56.22,-40.28 21.66,-10.07 45.14,-15.61 70.45,-16.65zm251.87 209.91c2.44,16.53 7.55,31.89 15.33,46.09 7.79,14.2 17.39,26.46 28.84,36.8 11.44,10.32 24.46,18.46 39.06,24.4 14.6,5.94 29.93,8.9 45.99,8.9 18,0 34.8,-3.47 50.37,-10.45 15.58,-6.97 29.45,-16.66 41.62,-29.05 4.38,-4.64 9.74,-6.97 16.06,-6.97 6.33,0 11.69,2.33 16.07,6.97 4.38,4.64 6.58,10.33 6.58,17.04 0,6.72 -2.2,12.39 -6.58,17.04 -16.07,19.1 -34.19,32.66 -54.39,40.66 -20.19,8.01 -43.44,12.01 -69.72,12.01 -24.33,0 -47.09,-4.65 -68.27,-13.95 -21.16,-9.29 -39.78,-22.2 -55.85,-38.72 -16.06,-16.53 -28.71,-36.16 -37.96,-58.87 -9.25,-22.73 -13.87,-47.51 -13.87,-74.36 0,-25.82 4.5,-49.97 13.51,-72.43 9,-22.47 21.42,-42.09 37.23,-58.86 15.83,-16.79 34.56,-30.22 56.23,-40.28 21.66,-10.07 45.13,-15.63 70.45,-16.65 22.88,0 44.89,4.9 66.07,14.71 21.17,9.82 39.78,23.25 55.85,40.28 16.07,17.04 28.96,36.8 38.69,59.26 9.74,22.46 14.6,46.6 14.6,72.41 0,7.76 -2.44,13.7 -7.3,17.82 -4.87,4.13 -9.98,6.19 -15.33,6.19l-283.26 0zm258.44 -48.02c-2.93,-16.01 -8.27,-30.98 -16.07,-44.93 -7.78,-13.93 -17.39,-25.94 -28.84,-36.02 -11.43,-10.07 -24.33,-18.07 -38.69,-24.01 -14.36,-5.94 -29.56,-8.9 -45.62,-8.9 -16.07,0 -31.27,2.96 -45.62,8.9 -14.36,5.94 -27.27,13.95 -38.7,24.01 -11.43,10.08 -20.93,22.09 -28.47,36.02 -7.55,13.95 -12.78,28.93 -15.7,44.93l257.71 0zm103.66 180.48c0,-8.78 2.92,-16.28 8.77,-22.47 5.84,-6.2 12.89,-9.3 21.17,-9.3 8.28,0 15.34,3.1 21.17,9.3 5.84,6.19 8.76,13.69 8.76,22.47 0,8.77 -2.92,16.27 -8.76,22.46 -5.83,6.2 -12.89,9.3 -21.17,9.3 -8.28,0 -15.33,-3.1 -21.17,-9.3 -5.85,-6.19 -8.77,-13.69 -8.77,-22.46z"/>
  </g>
 </g>
</svg>
